<?xml version="1.0" encoding="UTF-8" standalone="no"?>
<!-- Created with Inkscape (http://www.inkscape.org/) -->

<svg
   xmlns:dc="http://purl.org/dc/elements/1.1/"
   xmlns:cc="http://creativecommons.org/ns#"
   xmlns:rdf="http://www.w3.org/1999/02/22-rdf-syntax-ns#"
   xmlns:svg="http://www.w3.org/2000/svg"
   xmlns="http://www.w3.org/2000/svg"
   xmlns:sodipodi="http://sodipodi.sourceforge.net/DTD/sodipodi-0.dtd"
   xmlns:inkscape="http://www.inkscape.org/namespaces/inkscape"
   width="128"
   height="128"
   viewBox="0 0 33.866665 33.866667"
   version="1.1"
   id="svg8"
   inkscape:version="0.92.5 (2060ec1f9f, 2020-04-08)"
   sodipodi:docname="ws-dark.svg"
   inkscape:export-filename="/data/1-ai-data/dev/wasta-images/wasta-images/2020-logos/ws-dark-72AC90-128.png"
   inkscape:export-xdpi="96"
   inkscape:export-ydpi="96"
   style="enable-background:new">
  <defs
     id="defs2" />
  <sodipodi:namedview
     id="base"
     pagecolor="#ffffff"
     bordercolor="#666666"
     borderopacity="1.0"
     inkscape:pageopacity="0.0"
     inkscape:pageshadow="2"
     inkscape:zoom="5.6568542"
     inkscape:cx="-21.461114"
     inkscape:cy="54.888519"
     inkscape:document-units="px"
     inkscape:current-layer="g1253"
     showgrid="false"
     units="px"
     inkscape:pagecheckerboard="true"
     inkscape:window-width="1878"
     inkscape:window-height="1056"
     inkscape:window-x="42"
     inkscape:window-y="0"
     inkscape:window-maximized="1"
     scale-x="0.26458" />
  <metadata
     id="metadata5">
    <rdf:RDF>
      <cc:Work
         rdf:about="">
        <dc:format>image/svg+xml</dc:format>
        <dc:type
           rdf:resource="http://purl.org/dc/dcmitype/StillImage" />
        <dc:title />
      </cc:Work>
    </rdf:RDF>
  </metadata>
  <g
     style="display:inline"
     transform="translate(0,-263.13331)"
     id="g896"
     inkscape:groupmode="layer"
     inkscape:label="bg"
     sodipodi:insensitive="true">
    <ellipse
       cy="280.06665"
       cx="16.933332"
       id="circle882"
       style="fill:#404756;fill-opacity:1;stroke:#404756;stroke-width:0;stroke-linecap:round;stroke-miterlimit:4;stroke-dasharray:none;stroke-opacity:1"
       rx="14.816665"
       ry="14.816654" />
    <flowRoot
       transform="matrix(0.26458333,0,0,0.26458333,0,161.53331)"
       style="font-style:normal;font-variant:normal;font-weight:normal;font-stretch:normal;font-size:40px;line-height:1.25;font-family:arial;-inkscape-font-specification:arial;letter-spacing:0px;word-spacing:0px;fill:#000000;fill-opacity:1;stroke:none"
       id="flowRoot892"
       xml:space="preserve"><flowRegion
         id="flowRegion888"><rect
           y="-124.3961"
           x="332.34018"
           height="485.88336"
           width="661.6499"
           id="rect886" /></flowRegion><flowPara
         id="flowPara890" /></flowRoot>  </g>
  <g
     style="display:inline;opacity:1"
     transform="translate(0,-263.13331)"
     id="g176"
     inkscape:groupmode="layer"
     inkscape:label="bg-teal"
     sodipodi:insensitive="true">
    <ellipse
       ry="20.312483"
       rx="15.501633"
       cy="270.27301"
       cx="437.78748"
       id="ellipse164"
       style="fill:#ffffff;fill-opacity:0.00171533;stroke:#bebebe;stroke-width:0.26458332;stroke-linecap:round;stroke-miterlimit:4;stroke-dasharray:none;stroke-opacity:1" />
    <flowRoot
       transform="matrix(0.26458333,0,0,0.26458333,0,161.53331)"
       style="font-style:normal;font-variant:normal;font-weight:normal;font-stretch:normal;font-size:40px;line-height:1.25;font-family:arial;-inkscape-font-specification:arial;letter-spacing:0px;word-spacing:0px;fill:#000000;fill-opacity:1;stroke:none"
       id="flowRoot172"
       xml:space="preserve"><flowRegion
         id="flowRegion168"><rect
           y="-124.3961"
           x="332.34018"
           height="485.88336"
           width="661.6499"
           id="rect166" /></flowRegion><flowPara
         id="flowPara170" /></flowRoot>    <ellipse
       ry="13.427589"
       rx="13.427602"
       cy="280.06665"
       cx="16.933334"
       id="ellipse174"
       style="fill:#82bfa1;fill-opacity:1;stroke:#00add7;stroke-width:0;stroke-linecap:round;stroke-miterlimit:4;stroke-dasharray:none;stroke-opacity:1" />
  </g>
  <g
     transform="translate(0,-263.13331)"
     style="display:none;opacity:0.2"
     id="g1239"
     inkscape:groupmode="layer"
     inkscape:label="vert fold 20"
     sodipodi:insensitive="true">
    <path
       sodipodi:nodetypes="csc"
       inkscape:connector-curvature="0"
       id="path1227"
       d="m 16.933332,265.24999 c 8.183018,0 14.816663,6.63366 14.816664,14.81669 3e-6,8.18297 -6.633644,14.81662 -14.816664,14.81662"
       style="fill:#404756;fill-opacity:1;stroke:#404756;stroke-width:0;stroke-linecap:round;stroke-miterlimit:4;stroke-dasharray:none;stroke-opacity:1" />
    <flowRoot
       transform="matrix(0.26458333,0,0,0.26458333,0,161.53331)"
       style="font-style:normal;font-variant:normal;font-weight:normal;font-stretch:normal;font-size:40px;line-height:1.25;font-family:arial;-inkscape-font-specification:arial;letter-spacing:0px;word-spacing:0px;fill:#000000;fill-opacity:1;stroke:none"
       id="flowRoot1237"
       xml:space="preserve"><flowRegion
         id="flowRegion1233"><rect
           y="-124.3961"
           x="332.34018"
           height="485.88336"
           width="661.6499"
           id="rect1231" /></flowRegion><flowPara
         id="flowPara1235" /></flowRoot>  </g>
  <g
     style="display:none;opacity:0.2"
     transform="translate(0,-263.13331)"
     id="g1253"
     inkscape:groupmode="layer"
     inkscape:label="horiz fold 20"
     sodipodi:insensitive="true">
    <path
       sodipodi:nodetypes="csc"
       inkscape:connector-curvature="0"
       id="path1241"
       d="m 31.749996,280.06668 c 3e-6,8.18297 -6.633644,14.81662 -14.816664,14.81662 -8.183019,0 -14.8166656,-6.63365 -14.8166645,-14.81662"
       style="fill:#404756;fill-opacity:1;stroke:#404756;stroke-width:0;stroke-linecap:round;stroke-miterlimit:4;stroke-dasharray:none;stroke-opacity:1" />
    <flowRoot
       transform="matrix(0.26458333,0,0,0.26458333,0,161.53331)"
       style="font-style:normal;font-variant:normal;font-weight:normal;font-stretch:normal;font-size:40px;line-height:1.25;font-family:arial;-inkscape-font-specification:arial;letter-spacing:0px;word-spacing:0px;fill:#000000;fill-opacity:1;stroke:none"
       id="flowRoot1251"
       xml:space="preserve"><flowRegion
         id="flowRegion1247"><rect
           y="-124.3961"
           x="332.34018"
           height="485.88336"
           width="661.6499"
           id="rect1245" /></flowRegion><flowPara
         id="flowPara1249" /></flowRoot>  </g>
  <g
     inkscape:label="vert fold 30"
     inkscape:groupmode="layer"
     id="g933"
     style="display:inline;opacity:0.3"
     transform="translate(0,-263.13331)"
     sodipodi:insensitive="true">
    <path
       style="fill:#404756;fill-opacity:1;stroke:#404756;stroke-width:0;stroke-linecap:round;stroke-miterlimit:4;stroke-dasharray:none;stroke-opacity:1"
       d="m 16.933332,265.24999 c 8.183018,0 14.816663,6.63365 14.816665,14.81665 2e-6,8.18301 -6.633645,14.81666 -14.816665,14.81666"
       id="path921"
       inkscape:connector-curvature="0"
       sodipodi:nodetypes="csc" />
    <ellipse
       style="fill:#ffffff;fill-opacity:0.00171533;stroke:#bebebe;stroke-width:0.26458332;stroke-linecap:round;stroke-miterlimit:4;stroke-dasharray:none;stroke-opacity:1"
       id="ellipse923"
       cx="437.78748"
       cy="270.27301"
       rx="15.501633"
       ry="20.312483" />
    <flowRoot
       xml:space="preserve"
       id="flowRoot931"
       style="font-style:normal;font-variant:normal;font-weight:normal;font-stretch:normal;font-size:40px;line-height:1.25;font-family:arial;-inkscape-font-specification:arial;letter-spacing:0px;word-spacing:0px;fill:#000000;fill-opacity:1;stroke:none"
       transform="matrix(0.26458333,0,0,0.26458333,0,161.53331)"><flowRegion
         id="flowRegion927"><rect
           id="rect925"
           width="661.6499"
           height="485.88336"
           x="332.34018"
           y="-124.3961" /></flowRegion><flowPara
         id="flowPara929" /></flowRoot>  </g>
  <g
     inkscape:label="horiz fold 30"
     inkscape:groupmode="layer"
     id="g919"
     transform="translate(0,-263.13331)"
     style="display:inline;opacity:0.3"
     sodipodi:insensitive="true">
    <path
       style="fill:#404756;fill-opacity:1;stroke:#404756;stroke-width:0;stroke-linecap:round;stroke-miterlimit:4;stroke-dasharray:none;stroke-opacity:1"
       d="m 31.749997,280.06664 c 2e-6,8.18301 -6.633645,14.81666 -14.816665,14.81666 -8.1830191,0 -14.8166661,-6.63365 -14.8166648,-14.81666"
       id="path907"
       inkscape:connector-curvature="0"
       sodipodi:nodetypes="csc" />
    <ellipse
       style="fill:#ffffff;fill-opacity:0.00171533;stroke:#bebebe;stroke-width:0.26458332;stroke-linecap:round;stroke-miterlimit:4;stroke-dasharray:none;stroke-opacity:1"
       id="ellipse909"
       cx="437.78748"
       cy="270.27301"
       rx="15.501633"
       ry="20.312483" />
    <flowRoot
       xml:space="preserve"
       id="flowRoot917"
       style="font-style:normal;font-variant:normal;font-weight:normal;font-stretch:normal;font-size:40px;line-height:1.25;font-family:arial;-inkscape-font-specification:arial;letter-spacing:0px;word-spacing:0px;fill:#000000;fill-opacity:1;stroke:none"
       transform="matrix(0.26458333,0,0,0.26458333,0,161.53331)"><flowRegion
         id="flowRegion913"><rect
           id="rect911"
           width="661.6499"
           height="485.88336"
           x="332.34018"
           y="-124.3961" /></flowRegion><flowPara
         id="flowPara915" /></flowRoot>  </g>
  <g
     inkscape:label="ring-white"
     inkscape:groupmode="layer"
     id="g1042"
     transform="translate(0,-263.13331)"
     style="display:none"
     sodipodi:insensitive="true">
    <path
       style="fill:#ffffff;fill-opacity:1;stroke:#ffffff;stroke-width:0;stroke-linecap:round;stroke-miterlimit:4;stroke-dasharray:none;stroke-opacity:1"
       d="M 16.933332,265.24999 A 14.816664,14.816652 0 0 0 2.1166674,280.06664 14.816664,14.816652 0 0 0 16.933332,294.8833 14.816664,14.816652 0 0 0 31.749999,280.06664 14.816664,14.816652 0 0 0 16.933332,265.24999 Z m 0,1.38906 a 13.427603,13.427593 0 0 1 13.427604,13.42759 13.427603,13.427593 0 0 1 -13.427604,13.4276 13.427603,13.427593 0 0 1 -13.4276023,-13.4276 13.427603,13.427593 0 0 1 13.4276023,-13.42759 z"
       id="circle1030"
       inkscape:connector-curvature="0" />
    <ellipse
       style="fill:#ffffff;fill-opacity:0.00171533;stroke:#bebebe;stroke-width:0.26458332;stroke-linecap:round;stroke-miterlimit:4;stroke-dasharray:none;stroke-opacity:1"
       id="ellipse1032"
       cx="437.78748"
       cy="270.27301"
       rx="15.501633"
       ry="20.312483" />
    <flowRoot
       xml:space="preserve"
       id="flowRoot1040"
       style="font-style:normal;font-variant:normal;font-weight:normal;font-stretch:normal;font-size:40px;line-height:1.25;font-family:arial;-inkscape-font-specification:arial;letter-spacing:0px;word-spacing:0px;fill:#000000;fill-opacity:1;stroke:none"
       transform="matrix(0.26458333,0,0,0.26458333,0,161.53331)"><flowRegion
         id="flowRegion1036"><rect
           id="rect1034"
           width="661.6499"
           height="485.88336"
           x="332.34018"
           y="-124.3961" /></flowRegion><flowPara
         id="flowPara1038" /></flowRoot>  </g>
  <g
     style="display:inline"
     transform="translate(0,-263.13331)"
     id="g934"
     inkscape:groupmode="layer"
     inkscape:label="ring-dark"
     sodipodi:insensitive="true">
    <path
       inkscape:connector-curvature="0"
       id="path922"
       d="M 16.933332,265.24999 A 14.816664,14.816658 0 0 0 2.1166678,280.06668 14.816664,14.816658 0 0 0 16.933332,294.8833 14.816664,14.816658 0 0 0 31.749999,280.06668 14.816664,14.816658 0 0 0 16.933332,265.24999 Z m 0,1.38908 A 13.427603,13.427596 0 0 1 30.360936,280.06668 13.427603,13.427596 0 0 1 16.933332,293.49425 13.427603,13.427596 0 0 1 3.50573,280.06668 13.427603,13.427596 0 0 1 16.933332,266.63907 Z"
       style="fill:#404756;fill-opacity:1;stroke:#ffffff;stroke-width:0;stroke-linecap:round;stroke-miterlimit:4;stroke-dasharray:none;stroke-opacity:1" />
    <flowRoot
       transform="matrix(0.26458333,0,0,0.26458333,0,161.53331)"
       style="font-style:normal;font-variant:normal;font-weight:normal;font-stretch:normal;font-size:40px;line-height:1.25;font-family:arial;-inkscape-font-specification:arial;letter-spacing:0px;word-spacing:0px;fill:#000000;fill-opacity:1;stroke:none"
       id="flowRoot932"
       xml:space="preserve"><flowRegion
         id="flowRegion928"><rect
           y="-124.3961"
           x="332.34018"
           height="485.88336"
           width="661.6499"
           id="rect926" /></flowRegion><flowPara
         id="flowPara930" /></flowRoot>  </g>
  <g
     style="display:inline"
     transform="translate(0,-101.59999)"
     inkscape:label="w[S] narrow"
     id="g963"
     inkscape:groupmode="layer"
     sodipodi:insensitive="true">
    <g
       aria-label="w[S]"
       style="font-style:normal;font-variant:normal;font-weight:normal;font-stretch:normal;font-size:7.39235306px;line-height:1.25;font-family:arial;-inkscape-font-specification:arial;letter-spacing:0px;word-spacing:0px;fill:#ffffff;fill-opacity:1;stroke:#ffffff;stroke-width:0.5291664;stroke-miterlimit:4;stroke-dasharray:none;stroke-opacity:1"
       id="text961">
      <path
         d="M 8.7822031,122.88516 H 7.4931538 q -0.4593165,-1.52611 -0.8741829,-3.51155 -0.4000498,-1.98543 -0.740833,-4.26719 h 1.259416 q 0.059267,0.63711 0.1778,1.49648 0.1185332,0.84455 0.2518832,1.74836 0.1481665,0.889 0.2963331,1.73355 0.1481666,0.82974 0.2815166,1.4224 0.1333499,-0.59266 0.2963331,-1.45203 0.1777999,-0.85937 0.3407832,-1.76318 0.1777999,-0.90382 0.3259665,-1.74837 0.1481666,-0.85936 0.2370665,-1.43721 h 1.2001499 q 0.05927,0.57785 0.177799,1.4224 0.13335,0.84455 0.2667,1.76318 0.148167,0.90381 0.296333,1.76318 0.148167,0.85937 0.2667,1.45203 0.13335,-0.59266 0.281517,-1.43721 0.148166,-0.84455 0.281516,-1.73355 0.148167,-0.889 0.2667,-1.73355 0.118533,-0.85937 0.1778,-1.49648 h 1.214966 q -0.340783,2.28176 -0.755649,4.26719 -0.40005,1.98544 -0.859367,3.51155 h -1.244599 q -0.118533,-0.45931 -0.2667,-1.17051 -0.13335,-0.72602 -0.281516,-1.54094 -0.13335,-0.81491 -0.251884,-1.62983 -0.1185329,-0.82973 -0.2074328,-1.5113 -0.0889,0.68157 -0.2370666,1.5113 -0.1481666,0.81492 -0.3111498,1.62983 -0.1629833,0.81492 -0.3259665,1.54094 -0.1481666,0.7112 -0.2518832,1.17051 z"
         style="font-style:normal;font-variant:normal;font-weight:normal;font-stretch:normal;font-size:14.81665897px;font-family:'Ubuntu Condensed';-inkscape-font-specification:'Ubuntu Condensed, ';letter-spacing:0px;fill:#ffffff;fill-opacity:1;stroke:#ffffff;stroke-width:0.5291664;stroke-miterlimit:4;stroke-dasharray:none;stroke-opacity:1"
         id="path1066"
         inkscape:connector-curvature="0" />
      <path
         d="m 15.464515,111.28372 h 2.681815 v 1.00753 h -1.466849 v 12.32746 h 1.466849 v 1.00753 h -2.681815 z"
         style="letter-spacing:-0.26458332px;fill:#ffffff;fill-opacity:1;stroke:#ffffff;stroke-opacity:1"
         id="path1068"
         inkscape:connector-curvature="0" />
      <path
         d="m 20.489453,121.96653 q 0.800099,0 1.229782,-0.4445 0.4445,-0.4445 0.4445,-1.20015 0,-0.40005 -0.13335,-0.7112 -0.13335,-0.31115 -0.3556,-0.56303 -0.207433,-0.25189 -0.488949,-0.45932 -0.281517,-0.20743 -0.57785,-0.41487 -0.340783,-0.23706 -0.7112,-0.50376 -0.370416,-0.2667 -0.681566,-0.6223 -0.296333,-0.3556 -0.48895,-0.82973 -0.192616,-0.47414 -0.192616,-1.11125 0,-0.6223 0.207433,-1.12607 0.22225,-0.50377 0.592666,-0.85937 0.385233,-0.3556 0.903816,-0.54821 0.5334,-0.19262 1.140883,-0.19262 0.592667,0 1.096433,0.14817 0.503766,0.14816 0.84455,0.3556 l -0.414867,1.05198 q -0.31115,-0.20743 -0.681566,-0.31115 -0.3556,-0.11853 -0.75565,-0.11853 -0.726016,0 -1.170516,0.40005 -0.429683,0.38523 -0.429683,1.14088 0,0.41487 0.13335,0.72602 0.148167,0.31115 0.370416,0.56303 0.237067,0.25188 0.5334,0.45932 0.31115,0.20743 0.651933,0.42968 0.340783,0.22225 0.696383,0.48895 0.3556,0.2667 0.637116,0.6223 0.296334,0.34078 0.474133,0.81491 0.192617,0.45932 0.192617,1.09644 0,0.57785 -0.1778,1.09643 -0.1778,0.51858 -0.563033,0.91863 -0.370416,0.38524 -0.948266,0.6223 -0.563033,0.22225 -1.333499,0.22225 -0.7112,0 -1.2446,-0.16298 -0.533399,-0.16298 -0.948266,-0.42968 l 0.414867,-1.0668 q 0.385233,0.23706 0.785282,0.38523 0.414867,0.13335 0.948267,0.13335 z"
         style="letter-spacing:0.26458332px;fill:#ffffff;fill-opacity:1;stroke:#ffffff;stroke-opacity:1"
         id="path1070"
         inkscape:connector-curvature="0" />
      <path
         d="m 26.932577,125.62624 h -2.681815 v -1.00753 h 1.466849 v -12.32746 h -1.466849 v -1.00753 h 2.681815 z"
         style="font-size:14.81665897px;letter-spacing:0px;fill:#ffffff;fill-opacity:1;stroke:#ffffff;stroke-width:0.5291664;stroke-miterlimit:4;stroke-dasharray:none;stroke-opacity:1"
         id="path1072"
         inkscape:connector-curvature="0" />
    </g>
  </g>
</svg>
